<svg xmlns="http://www.w3.org/2000/svg" version="1.1" xmlns:xlink="http://www.w3.org/1999/xlink" xmlns:svgjs="http://svgjs.dev/svgjs" width="1500" height="1500" viewBox="0 0 1500 1500"><rect width="1500" height="1500" fill="#09090b"></rect><g transform="matrix(0.6666666666666666,0,0,0.6666666666666666,249.39393939393938,435.99032258064517)"><svg viewBox="0 0 396 248" data-background-color="#09090b" preserveAspectRatio="xMidYMid meet" height="939" width="1500" xmlns="http://www.w3.org/2000/svg" xmlns:xlink="http://www.w3.org/1999/xlink"><g id="tight-bounds" transform="matrix(1,0,0,1,0.2400000000000091,0.4000000000000057)"><svg viewBox="0 0 395.52 247.2" height="247.2" width="395.52"><g><svg></svg></g><g><svg viewBox="0 0 395.52 247.2" height="247.2" width="395.52"><g transform="matrix(1,0,0,1,49.12927374301677,37.08)"><svg viewBox="0 0 297.26145251396645 173.04" height="173.04" width="297.26145251396645"><g><svg viewBox="0 0 297.26145251396645 173.04" height="173.04" width="297.26145251396645"><g><svg viewBox="0 0 297.26145251396645 173.04" height="173.04" width="297.26145251396645"><g><svg viewBox="0 0 297.26145251396645 173.04" height="173.04" width="297.26145251396645"><g id="textblocktransform"><svg viewBox="0 0 297.26145251396645 173.04" height="173.04" width="297.26145251396645" id="textblock"><g><svg viewBox="0 0 297.26145251396645 173.04" height="173.04" width="297.26145251396645"><g transform="matrix(1,0,0,1,0,0)"><svg width="297.26145251396645" viewBox="4.55 -35.8 61.5 35.8" height="173.04" data-palette-color="#d94e28"><path d="M20.85-15.4L9.1-15.4 9.1 0 4.55 0 4.55-35.8 21-35.8Q26.7-35.8 29.5-33L29.5-33Q31.95-30.55 31.95-26.2L31.95-26.2Q31.95-23.15 30.63-21.15 29.3-19.15 26.25-17.65L26.25-17.65Q28.7-16.7 29.85-15.1L29.85-15.1Q31-13.45 31.15-8.35L31.15-8.35Q31.25-4.6 31.63-3.33 32-2.05 33.3-1.15L33.3-1.15 33.3 0 27.8 0Q26.7-2.3 26.7-4.85L26.7-4.85 26.75-10.45Q26.75-11 26.3-12.15 25.85-13.3 25.45-13.8L25.45-13.8Q24.1-15.4 20.85-15.4L20.85-15.4ZM9.1-31.75L9.1-19.45 20.15-19.45Q27.2-19.45 27.2-25.6L27.2-25.6Q27.2-31.75 20.15-31.75L20.15-31.75 9.1-31.75ZM55.45 0L39.35 0 39.35-35.8 53.9-35.8Q58.9-35.8 61.65-33.3L61.65-33.3Q64.5-30.7 64.5-26.7L64.5-26.7Q64.5-21.2 59.5-18.9L59.5-18.9Q66.05-16.4 66.05-10.2L66.05-10.2Q66.05-5.9 63.3-3L63.3-3Q60.45 0 55.45 0L55.45 0ZM43.9-31.75L43.9-20.4 52.75-20.4Q56.25-20.4 57.95-21.65L57.95-21.65Q59.9-23.1 59.9-26.05L59.9-26.05Q59.9-29 57.95-30.5L57.95-30.5Q56.25-31.75 52.75-31.75L52.75-31.75 43.9-31.75ZM43.9-16.35L43.9-4.05 55.05-4.05Q58.1-4.05 59.8-5.68 61.5-7.3 61.5-10.2L61.5-10.2Q61.5-13.1 59.8-14.73 58.1-16.35 55.05-16.35L55.05-16.35 43.9-16.35Z" opacity="1" transform="matrix(1,0,0,1,0,0)" fill="#d94e28" class="wordmark-text-0" data-fill-palette-color="primary" id="text-0"></path></svg></g></svg></g></svg></g></svg></g><g></g></svg></g></svg></g></svg></g><g><path d="M0 247.2v-247.2h395.52v247.2zM379.915 231.595v-215.99h-364.31v215.99z" fill="#d94e28" fill-rule="nonzero" stroke="none" stroke-width="1" stroke-linecap="butt" stroke-linejoin="miter" stroke-miterlimit="10" stroke-dasharray="" stroke-dashoffset="0" font-family="none" font-weight="none" font-size="none" text-anchor="none" style="mix-blend-mode: normal" data-fill-palette-color="tertiary"></path></g></svg></g><defs></defs></svg><rect width="395.52" height="247.2" fill="none" stroke="none" visibility="hidden"></rect></g></svg></g></svg>